<svg width="1040" height="833" viewBox="0 0 1040 833" fill="none" xmlns="http://www.w3.org/2000/svg">
<path d="M534.5 374C534.9 371.2 537.667 368.833 539 368C505.5 673 280.5 863 0.5 806C362.1 770.4 507.167 503.167 534.5 374Z" fill="white"/>
<path d="M1 806C232.5 856 488.5 726 539 368.5C551.5 552 356.5 916.5 1 806Z" fill="#EEEFF2"/>
<path d="M556.5 249.5C373.7 -0.499725 140.333 93.0003 46.5 171C249 -131 583.5 29.0001 673 188.5L1033.5 822H885.5L556.5 249.5Z" fill="white"/>
<path d="M1032.5 822H885L892.5 833H1039.5L1032.5 822Z" fill="#EEEFF2"/>
</svg>
